<svg width="512" height="512" viewBox="0 0 512 512" fill="none" xmlns="http://www.w3.org/2000/svg">
<g clip-path="url(#clip0_17_4)">
<rect y="-3.05176e-05" width="512" height="512" rx="75" fill="black"/>
<g filter="url(#filter0_df_17_4)">
<path d="M150.782 455.948C147.772 455.948 145.221 454.901 143.127 452.808C141.033 450.714 139.986 448.162 139.986 445.152C139.986 442.273 141.033 439.787 143.127 437.693C145.221 435.6 147.772 434.553 150.782 434.553C153.661 434.553 156.147 435.6 158.241 437.693C160.335 439.787 161.382 442.273 161.382 445.152C161.382 448.162 160.335 450.714 158.241 452.808C156.147 454.901 153.661 455.948 150.782 455.948ZM177.478 455.948C174.599 455.948 172.112 454.901 170.019 452.808C167.925 450.714 166.878 448.162 166.878 445.152C166.878 442.273 167.925 439.787 170.019 437.693C172.112 435.6 174.599 434.553 177.478 434.553C180.487 434.553 183.039 435.6 185.133 437.693C187.227 439.787 188.273 442.273 188.273 445.152C188.273 448.162 187.227 450.714 185.133 452.808C183.039 454.901 180.487 455.948 177.478 455.948ZM338.435 455.948C335.425 455.948 332.873 454.901 330.779 452.808C328.686 450.714 327.639 448.162 327.639 445.152C327.639 442.273 328.686 439.787 330.779 437.693C332.873 435.6 335.425 434.553 338.435 434.553C341.313 434.553 343.8 435.6 345.894 437.693C347.987 439.787 349.034 442.273 349.034 445.152C349.034 448.162 347.987 450.714 345.894 452.808C343.8 454.901 341.313 455.948 338.435 455.948ZM365.13 455.948C362.12 455.948 359.568 454.901 357.475 452.808C355.381 450.714 354.334 448.162 354.334 445.152C354.334 442.273 355.381 439.787 357.475 437.693C359.568 435.6 362.12 434.553 365.13 434.553C368.14 434.553 370.691 435.6 372.785 437.693C374.879 439.787 375.926 442.273 375.926 445.152C375.926 448.162 374.879 450.714 372.785 452.808C370.691 454.901 368.14 455.948 365.13 455.948ZM150.782 429.057C147.772 429.057 145.221 428.01 143.127 425.916C141.033 423.822 139.986 421.336 139.986 418.457C139.986 415.447 141.033 412.896 143.127 410.802C145.221 408.708 147.772 407.661 150.782 407.661C153.661 407.661 156.147 408.708 158.241 410.802C160.335 412.896 161.382 415.447 161.382 418.457C161.382 421.336 160.335 423.822 158.241 425.916C156.147 428.01 153.661 429.057 150.782 429.057ZM177.478 429.057C174.599 429.057 172.112 428.01 170.019 425.916C167.925 423.822 166.878 421.336 166.878 418.457C166.878 415.447 167.925 412.896 170.019 410.802C172.112 408.708 174.599 407.661 177.478 407.661C180.487 407.661 183.039 408.708 185.133 410.802C187.227 412.896 188.273 415.447 188.273 418.457C188.273 421.336 187.227 423.822 185.133 425.916C183.039 428.01 180.487 429.057 177.478 429.057ZM338.435 429.057C335.425 429.057 332.873 428.01 330.779 425.916C328.686 423.822 327.639 421.336 327.639 418.457C327.639 415.447 328.686 412.896 330.779 410.802C332.873 408.708 335.425 407.661 338.435 407.661C341.313 407.661 343.8 408.708 345.894 410.802C347.987 412.896 349.034 415.447 349.034 418.457C349.034 421.336 347.987 423.822 345.894 425.916C343.8 428.01 341.313 429.057 338.435 429.057ZM365.13 429.057C362.12 429.057 359.568 428.01 357.475 425.916C355.381 423.822 354.334 421.336 354.334 418.457C354.334 415.447 355.381 412.896 357.475 410.802C359.568 408.708 362.12 407.661 365.13 407.661C368.14 407.661 370.691 408.708 372.785 410.802C374.879 412.896 375.926 415.447 375.926 418.457C375.926 421.336 374.879 423.822 372.785 425.916C370.691 428.01 368.14 429.057 365.13 429.057ZM150.782 402.361C147.772 402.361 145.221 401.314 143.127 399.221C141.033 397.127 139.986 394.575 139.986 391.565C139.986 388.687 141.033 386.2 143.127 384.106C145.221 382.013 147.772 380.966 150.782 380.966C153.661 380.966 156.147 382.013 158.241 384.106C160.335 386.2 161.382 388.687 161.382 391.565C161.382 394.575 160.335 397.127 158.241 399.221C156.147 401.314 153.661 402.361 150.782 402.361ZM177.478 402.361C174.599 402.361 172.112 401.314 170.019 399.221C167.925 397.127 166.878 394.575 166.878 391.565C166.878 388.687 167.925 386.2 170.019 384.106C172.112 382.013 174.599 380.966 177.478 380.966C180.487 380.966 183.039 382.013 185.133 384.106C187.227 386.2 188.273 388.687 188.273 391.565C188.273 394.575 187.227 397.127 185.133 399.221C183.039 401.314 180.487 402.361 177.478 402.361ZM338.435 402.361C335.425 402.361 332.873 401.314 330.779 399.221C328.686 397.127 327.639 394.575 327.639 391.565C327.639 388.687 328.686 386.2 330.779 384.106C332.873 382.013 335.425 380.966 338.435 380.966C341.313 380.966 343.8 382.013 345.894 384.106C347.987 386.2 349.034 388.687 349.034 391.565C349.034 394.575 347.987 397.127 345.894 399.221C343.8 401.314 341.313 402.361 338.435 402.361ZM365.13 402.361C362.12 402.361 359.568 401.314 357.475 399.221C355.381 397.127 354.334 394.575 354.334 391.565C354.334 388.687 355.381 386.2 357.475 384.106C359.568 382.013 362.12 380.966 365.13 380.966C368.14 380.966 370.691 382.013 372.785 384.106C374.879 386.2 375.926 388.687 375.926 391.565C375.926 394.575 374.879 397.127 372.785 399.221C370.691 401.314 368.14 402.361 365.13 402.361ZM150.782 375.47C147.772 375.47 145.221 374.423 143.127 372.329C141.033 370.235 139.986 367.749 139.986 364.87C139.986 361.86 141.033 359.309 143.127 357.215C145.221 355.121 147.772 354.074 150.782 354.074C153.661 354.074 156.147 355.121 158.241 357.215C160.335 359.309 161.382 361.86 161.382 364.87C161.382 367.749 160.335 370.235 158.241 372.329C156.147 374.423 153.661 375.47 150.782 375.47ZM177.478 375.47C174.599 375.47 172.112 374.423 170.019 372.329C167.925 370.235 166.878 367.749 166.878 364.87C166.878 361.86 167.925 359.309 170.019 357.215C172.112 355.121 174.599 354.074 177.478 354.074C180.487 354.074 183.039 355.121 185.133 357.215C187.227 359.309 188.273 361.86 188.273 364.87C188.273 367.749 187.227 370.235 185.133 372.329C183.039 374.423 180.487 375.47 177.478 375.47ZM338.435 375.47C335.425 375.47 332.873 374.423 330.779 372.329C328.686 370.235 327.639 367.749 327.639 364.87C327.639 361.86 328.686 359.309 330.779 357.215C332.873 355.121 335.425 354.074 338.435 354.074C341.313 354.074 343.8 355.121 345.894 357.215C347.987 359.309 349.034 361.86 349.034 364.87C349.034 367.749 347.987 370.235 345.894 372.329C343.8 374.423 341.313 375.47 338.435 375.47ZM365.13 375.47C362.12 375.47 359.568 374.423 357.475 372.329C355.381 370.235 354.334 367.749 354.334 364.87C354.334 361.86 355.381 359.309 357.475 357.215C359.568 355.121 362.12 354.074 365.13 354.074C368.14 354.074 370.691 355.121 372.785 357.215C374.879 359.309 375.926 361.86 375.926 364.87C375.926 367.749 374.879 370.235 372.785 372.329C370.691 374.423 368.14 375.47 365.13 375.47ZM150.782 348.774C147.772 348.774 145.221 347.728 143.127 345.634C141.033 343.54 139.986 340.988 139.986 337.979C139.986 334.969 141.033 332.417 143.127 330.323C145.221 328.229 147.772 327.183 150.782 327.183C153.661 327.183 156.147 328.229 158.241 330.323C160.335 332.417 161.382 334.969 161.382 337.979C161.382 340.988 160.335 343.54 158.241 345.634C156.147 347.728 153.661 348.774 150.782 348.774ZM177.478 348.774C174.599 348.774 172.112 347.728 170.019 345.634C167.925 343.54 166.878 340.988 166.878 337.979C166.878 334.969 167.925 332.417 170.019 330.323C172.112 328.229 174.599 327.183 177.478 327.183C180.487 327.183 183.039 328.229 185.133 330.323C187.227 332.417 188.273 334.969 188.273 337.979C188.273 340.988 187.227 343.54 185.133 345.634C183.039 347.728 180.487 348.774 177.478 348.774ZM338.435 348.774C335.425 348.774 332.873 347.728 330.779 345.634C328.686 343.54 327.639 340.988 327.639 337.979C327.639 334.969 328.686 332.417 330.779 330.323C332.873 328.229 335.425 327.183 338.435 327.183C341.313 327.183 343.8 328.229 345.894 330.323C347.987 332.417 349.034 334.969 349.034 337.979C349.034 340.988 347.987 343.54 345.894 345.634C343.8 347.728 341.313 348.774 338.435 348.774ZM365.13 348.774C362.12 348.774 359.568 347.728 357.475 345.634C355.381 343.54 354.334 340.988 354.334 337.979C354.334 334.969 355.381 332.417 357.475 330.323C359.568 328.229 362.12 327.183 365.13 327.183C368.14 327.183 370.691 328.229 372.785 330.323C374.879 332.417 375.926 334.969 375.926 337.979C375.926 340.988 374.879 343.54 372.785 345.634C370.691 347.728 368.14 348.774 365.13 348.774ZM150.782 321.883C147.772 321.883 145.221 320.836 143.127 318.742C141.033 316.648 139.986 314.162 139.986 311.283C139.986 308.273 141.033 305.722 143.127 303.628C145.221 301.534 147.772 300.487 150.782 300.487C153.661 300.487 156.147 301.534 158.241 303.628C160.335 305.722 161.382 308.273 161.382 311.283C161.382 314.162 160.335 316.648 158.241 318.742C156.147 320.836 153.661 321.883 150.782 321.883ZM177.478 321.883C174.599 321.883 172.112 320.836 170.019 318.742C167.925 316.648 166.878 314.162 166.878 311.283C166.878 308.273 167.925 305.722 170.019 303.628C172.112 301.534 174.599 300.487 177.478 300.487C180.487 300.487 183.039 301.534 185.133 303.628C187.227 305.722 188.273 308.273 188.273 311.283C188.273 314.162 187.227 316.648 185.133 318.742C183.039 320.836 180.487 321.883 177.478 321.883ZM338.435 321.883C335.425 321.883 332.873 320.836 330.779 318.742C328.686 316.648 327.639 314.162 327.639 311.283C327.639 308.273 328.686 305.722 330.779 303.628C332.873 301.534 335.425 300.487 338.435 300.487C341.313 300.487 343.8 301.534 345.894 303.628C347.987 305.722 349.034 308.273 349.034 311.283C349.034 314.162 347.987 316.648 345.894 318.742C343.8 320.836 341.313 321.883 338.435 321.883ZM365.13 321.883C362.12 321.883 359.568 320.836 357.475 318.742C355.381 316.648 354.334 314.162 354.334 311.283C354.334 308.273 355.381 305.722 357.475 303.628C359.568 301.534 362.12 300.487 365.13 300.487C368.14 300.487 370.691 301.534 372.785 303.628C374.879 305.722 375.926 308.273 375.926 311.283C375.926 314.162 374.879 316.648 372.785 318.742C370.691 320.836 368.14 321.883 365.13 321.883ZM150.782 295.188C147.772 295.188 145.221 294.141 143.127 292.047C141.033 289.953 139.986 287.401 139.986 284.392C139.986 281.382 141.033 278.83 143.127 276.736C145.221 274.643 147.772 273.596 150.782 273.596C153.661 273.596 156.147 274.643 158.241 276.736C160.335 278.83 161.382 281.382 161.382 284.392C161.382 287.401 160.335 289.953 158.241 292.047C156.147 294.141 153.661 295.188 150.782 295.188ZM177.478 295.188C174.599 295.188 172.112 294.141 170.019 292.047C167.925 289.953 166.878 287.401 166.878 284.392C166.878 281.382 167.925 278.83 170.019 276.736C172.112 274.643 174.599 273.596 177.478 273.596C180.487 273.596 183.039 274.643 185.133 276.736C187.227 278.83 188.273 281.382 188.273 284.392C188.273 287.401 187.227 289.953 185.133 292.047C183.039 294.141 180.487 295.188 177.478 295.188ZM204.369 295.188C201.359 295.188 198.808 294.141 196.714 292.047C194.62 289.953 193.573 287.401 193.573 284.392C193.573 281.382 194.62 278.83 196.714 276.736C198.808 274.643 201.359 273.596 204.369 273.596C207.248 273.596 209.734 274.643 211.828 276.736C213.922 278.83 214.969 281.382 214.969 284.392C214.969 287.401 213.922 289.953 211.828 292.047C209.734 294.141 207.248 295.188 204.369 295.188ZM231.064 295.188C228.186 295.188 225.699 294.141 223.605 292.047C221.512 289.953 220.465 287.401 220.465 284.392C220.465 281.382 221.512 278.83 223.605 276.736C225.699 274.643 228.186 273.596 231.064 273.596C234.074 273.596 236.626 274.643 238.72 276.736C240.813 278.83 241.86 281.382 241.86 284.392C241.86 287.401 240.813 289.953 238.72 292.047C236.626 294.141 234.074 295.188 231.064 295.188ZM257.956 295.188C254.946 295.188 252.395 294.141 250.301 292.047C248.207 289.953 247.16 287.401 247.16 284.392C247.16 281.382 248.207 278.83 250.301 276.736C252.395 274.643 254.946 273.596 257.956 273.596C260.966 273.596 263.518 274.643 265.611 276.736C267.705 278.83 268.752 281.382 268.752 284.392C268.752 287.401 267.705 289.953 265.611 292.047C263.518 294.141 260.966 295.188 257.956 295.188ZM284.651 295.188C281.772 295.188 279.286 294.141 277.192 292.047C275.099 289.953 274.052 287.401 274.052 284.392C274.052 281.382 275.099 278.83 277.192 276.736C279.286 274.643 281.772 273.596 284.651 273.596C287.661 273.596 290.213 274.643 292.307 276.736C294.4 278.83 295.447 281.382 295.447 284.392C295.447 287.401 294.4 289.953 292.307 292.047C290.213 294.141 287.661 295.188 284.651 295.188ZM311.543 295.188C308.533 295.188 305.981 294.141 303.888 292.047C301.794 289.953 300.747 287.401 300.747 284.392C300.747 281.382 301.794 278.83 303.888 276.736C305.981 274.643 308.533 273.596 311.543 273.596C314.553 273.596 317.104 274.643 319.198 276.736C321.292 278.83 322.339 281.382 322.339 284.392C322.339 287.401 321.292 289.953 319.198 292.047C317.104 294.141 314.553 295.188 311.543 295.188ZM338.435 295.188C335.425 295.188 332.873 294.141 330.779 292.047C328.686 289.953 327.639 287.401 327.639 284.392C327.639 281.382 328.686 278.83 330.779 276.736C332.873 274.643 335.425 273.596 338.435 273.596C341.313 273.596 343.8 274.643 345.894 276.736C347.987 278.83 349.034 281.382 349.034 284.392C349.034 287.401 347.987 289.953 345.894 292.047C343.8 294.141 341.313 295.188 338.435 295.188ZM365.13 295.188C362.12 295.188 359.568 294.141 357.475 292.047C355.381 289.953 354.334 287.401 354.334 284.392C354.334 281.382 355.381 278.83 357.475 276.736C359.568 274.643 362.12 273.596 365.13 273.596C368.14 273.596 370.691 274.643 372.785 276.736C374.879 278.83 375.926 281.382 375.926 284.392C375.926 287.401 374.879 289.953 372.785 292.047C370.691 294.141 368.14 295.188 365.13 295.188ZM150.782 268.296C147.772 268.296 145.221 267.249 143.127 265.155C141.033 263.062 139.986 260.51 139.986 257.5C139.986 254.621 141.033 252.135 143.127 250.041C145.221 247.947 147.772 246.9 150.782 246.9C153.661 246.9 156.147 247.947 158.241 250.041C160.335 252.135 161.382 254.621 161.382 257.5C161.382 260.51 160.335 263.062 158.241 265.155C156.147 267.249 153.661 268.296 150.782 268.296ZM177.478 268.296C174.599 268.296 172.112 267.249 170.019 265.155C167.925 263.062 166.878 260.51 166.878 257.5C166.878 254.621 167.925 252.135 170.019 250.041C172.112 247.947 174.599 246.9 177.478 246.9C180.487 246.9 183.039 247.947 185.133 250.041C187.227 252.135 188.273 254.621 188.273 257.5C188.273 260.51 187.227 263.062 185.133 265.155C183.039 267.249 180.487 268.296 177.478 268.296ZM204.369 268.296C201.359 268.296 198.808 267.249 196.714 265.155C194.62 263.062 193.573 260.51 193.573 257.5C193.573 254.621 194.62 252.135 196.714 250.041C198.808 247.947 201.359 246.9 204.369 246.9C207.248 246.9 209.734 247.947 211.828 250.041C213.922 252.135 214.969 254.621 214.969 257.5C214.969 260.51 213.922 263.062 211.828 265.155C209.734 267.249 207.248 268.296 204.369 268.296ZM231.064 268.296C228.186 268.296 225.699 267.249 223.605 265.155C221.512 263.062 220.465 260.51 220.465 257.5C220.465 254.621 221.512 252.135 223.605 250.041C225.699 247.947 228.186 246.9 231.064 246.9C234.074 246.9 236.626 247.947 238.72 250.041C240.813 252.135 241.86 254.621 241.86 257.5C241.86 260.51 240.813 263.062 238.72 265.155C236.626 267.249 234.074 268.296 231.064 268.296ZM257.956 268.296C254.946 268.296 252.395 267.249 250.301 265.155C248.207 263.062 247.16 260.51 247.16 257.5C247.16 254.621 248.207 252.135 250.301 250.041C252.395 247.947 254.946 246.9 257.956 246.9C260.966 246.9 263.518 247.947 265.611 250.041C267.705 252.135 268.752 254.621 268.752 257.5C268.752 260.51 267.705 263.062 265.611 265.155C263.518 267.249 260.966 268.296 257.956 268.296ZM284.651 268.296C281.772 268.296 279.286 267.249 277.192 265.155C275.099 263.062 274.052 260.51 274.052 257.5C274.052 254.621 275.099 252.135 277.192 250.041C279.286 247.947 281.772 246.9 284.651 246.9C287.661 246.9 290.213 247.947 292.307 250.041C294.4 252.135 295.447 254.621 295.447 257.5C295.447 260.51 294.4 263.062 292.307 265.155C290.213 267.249 287.661 268.296 284.651 268.296ZM311.543 268.296C308.533 268.296 305.981 267.249 303.888 265.155C301.794 263.062 300.747 260.51 300.747 257.5C300.747 254.621 301.794 252.135 303.888 250.041C305.981 247.947 308.533 246.9 311.543 246.9C314.553 246.9 317.104 247.947 319.198 250.041C321.292 252.135 322.339 254.621 322.339 257.5C322.339 260.51 321.292 263.062 319.198 265.155C317.104 267.249 314.553 268.296 311.543 268.296ZM338.435 268.296C335.425 268.296 332.873 267.249 330.779 265.155C328.686 263.062 327.639 260.51 327.639 257.5C327.639 254.621 328.686 252.135 330.779 250.041C332.873 247.947 335.425 246.9 338.435 246.9C341.313 246.9 343.8 247.947 345.894 250.041C347.987 252.135 349.034 254.621 349.034 257.5C349.034 260.51 347.987 263.062 345.894 265.155C343.8 267.249 341.313 268.296 338.435 268.296ZM365.13 268.296C362.12 268.296 359.568 267.249 357.475 265.155C355.381 263.062 354.334 260.51 354.334 257.5C354.334 254.621 355.381 252.135 357.475 250.041C359.568 247.947 362.12 246.9 365.13 246.9C368.14 246.9 370.691 247.947 372.785 250.041C374.879 252.135 375.926 254.621 375.926 257.5C375.926 260.51 374.879 263.062 372.785 265.155C370.691 267.249 368.14 268.296 365.13 268.296ZM150.782 241.601C147.772 241.601 145.221 240.554 143.127 238.46C141.033 236.366 139.986 233.814 139.986 230.805C139.986 227.795 141.033 225.243 143.127 223.149C145.221 221.056 147.772 220.009 150.782 220.009C153.661 220.009 156.147 221.056 158.241 223.149C160.335 225.243 161.382 227.795 161.382 230.805C161.382 233.814 160.335 236.366 158.241 238.46C156.147 240.554 153.661 241.601 150.782 241.601ZM177.478 241.601C174.599 241.601 172.112 240.554 170.019 238.46C167.925 236.366 166.878 233.814 166.878 230.805C166.878 227.795 167.925 225.243 170.019 223.149C172.112 221.056 174.599 220.009 177.478 220.009C180.487 220.009 183.039 221.056 185.133 223.149C187.227 225.243 188.273 227.795 188.273 230.805C188.273 233.814 187.227 236.366 185.133 238.46C183.039 240.554 180.487 241.601 177.478 241.601ZM338.435 241.601C335.425 241.601 332.873 240.554 330.779 238.46C328.686 236.366 327.639 233.814 327.639 230.805C327.639 227.795 328.686 225.243 330.779 223.149C332.873 221.056 335.425 220.009 338.435 220.009C341.313 220.009 343.8 221.056 345.894 223.149C347.987 225.243 349.034 227.795 349.034 230.805C349.034 233.814 347.987 236.366 345.894 238.46C343.8 240.554 341.313 241.601 338.435 241.601ZM365.13 241.601C362.12 241.601 359.568 240.554 357.475 238.46C355.381 236.366 354.334 233.814 354.334 230.805C354.334 227.795 355.381 225.243 357.475 223.149C359.568 221.056 362.12 220.009 365.13 220.009C368.14 220.009 370.691 221.056 372.785 223.149C374.879 225.243 375.926 227.795 375.926 230.805C375.926 233.814 374.879 236.366 372.785 238.46C370.691 240.554 368.14 241.601 365.13 241.601ZM150.782 214.709C147.772 214.709 145.221 213.662 143.127 211.568C141.033 209.475 139.986 206.923 139.986 203.913C139.986 201.034 141.033 198.548 143.127 196.454C145.221 194.36 147.772 193.313 150.782 193.313C153.661 193.313 156.147 194.36 158.241 196.454C160.335 198.548 161.382 201.034 161.382 203.913C161.382 206.923 160.335 209.475 158.241 211.568C156.147 213.662 153.661 214.709 150.782 214.709ZM177.478 214.709C174.599 214.709 172.112 213.662 170.019 211.568C167.925 209.475 166.878 206.923 166.878 203.913C166.878 201.034 167.925 198.548 170.019 196.454C172.112 194.36 174.599 193.313 177.478 193.313C180.487 193.313 183.039 194.36 185.133 196.454C187.227 198.548 188.273 201.034 188.273 203.913C188.273 206.923 187.227 209.475 185.133 211.568C183.039 213.662 180.487 214.709 177.478 214.709ZM338.435 214.709C335.425 214.709 332.873 213.662 330.779 211.568C328.686 209.475 327.639 206.923 327.639 203.913C327.639 201.034 328.686 198.548 330.779 196.454C332.873 194.36 335.425 193.313 338.435 193.313C341.313 193.313 343.8 194.36 345.894 196.454C347.987 198.548 349.034 201.034 349.034 203.913C349.034 206.923 347.987 209.475 345.894 211.568C343.8 213.662 341.313 214.709 338.435 214.709ZM365.13 214.709C362.12 214.709 359.568 213.662 357.475 211.568C355.381 209.475 354.334 206.923 354.334 203.913C354.334 201.034 355.381 198.548 357.475 196.454C359.568 194.36 362.12 193.313 365.13 193.313C368.14 193.313 370.691 194.36 372.785 196.454C374.879 198.548 375.926 201.034 375.926 203.913C375.926 206.923 374.879 209.475 372.785 211.568C370.691 213.662 368.14 214.709 365.13 214.709ZM150.782 188.014C147.772 188.014 145.221 186.967 143.127 184.873C141.033 182.779 139.986 180.228 139.986 177.218C139.986 174.208 141.033 171.656 143.127 169.562C145.221 167.469 147.772 166.422 150.782 166.422C153.661 166.422 156.147 167.469 158.241 169.562C160.335 171.656 161.382 174.208 161.382 177.218C161.382 180.228 160.335 182.779 158.241 184.873C156.147 186.967 153.661 188.014 150.782 188.014ZM177.478 188.014C174.599 188.014 172.112 186.967 170.019 184.873C167.925 182.779 166.878 180.228 166.878 177.218C166.878 174.208 167.925 171.656 170.019 169.562C172.112 167.469 174.599 166.422 177.478 166.422C180.487 166.422 183.039 167.469 185.133 169.562C187.227 171.656 188.273 174.208 188.273 177.218C188.273 180.228 187.227 182.779 185.133 184.873C183.039 186.967 180.487 188.014 177.478 188.014ZM338.435 188.014C335.425 188.014 332.873 186.967 330.779 184.873C328.686 182.779 327.639 180.228 327.639 177.218C327.639 174.208 328.686 171.656 330.779 169.562C332.873 167.469 335.425 166.422 338.435 166.422C341.313 166.422 343.8 167.469 345.894 169.562C347.987 171.656 349.034 174.208 349.034 177.218C349.034 180.228 347.987 182.779 345.894 184.873C343.8 186.967 341.313 188.014 338.435 188.014ZM365.13 188.014C362.12 188.014 359.568 186.967 357.475 184.873C355.381 182.779 354.334 180.228 354.334 177.218C354.334 174.208 355.381 171.656 357.475 169.562C359.568 167.469 362.12 166.422 365.13 166.422C368.14 166.422 370.691 167.469 372.785 169.562C374.879 171.656 375.926 174.208 375.926 177.218C375.926 180.228 374.879 182.779 372.785 184.873C370.691 186.967 368.14 188.014 365.13 188.014ZM150.782 161.122C147.772 161.122 145.221 160.075 143.127 157.981C141.033 155.888 139.986 153.336 139.986 150.326C139.986 147.447 141.033 144.961 143.127 142.867C145.221 140.773 147.772 139.727 150.782 139.727C153.661 139.727 156.147 140.773 158.241 142.867C160.335 144.961 161.382 147.447 161.382 150.326C161.382 153.336 160.335 155.888 158.241 157.981C156.147 160.075 153.661 161.122 150.782 161.122ZM177.478 161.122C174.599 161.122 172.112 160.075 170.019 157.981C167.925 155.888 166.878 153.336 166.878 150.326C166.878 147.447 167.925 144.961 170.019 142.867C172.112 140.773 174.599 139.727 177.478 139.727C180.487 139.727 183.039 140.773 185.133 142.867C187.227 144.961 188.273 147.447 188.273 150.326C188.273 153.336 187.227 155.888 185.133 157.981C183.039 160.075 180.487 161.122 177.478 161.122ZM338.435 161.122C335.425 161.122 332.873 160.075 330.779 157.981C328.686 155.888 327.639 153.336 327.639 150.326C327.639 147.447 328.686 144.961 330.779 142.867C332.873 140.773 335.425 139.727 338.435 139.727C341.313 139.727 343.8 140.773 345.894 142.867C347.987 144.961 349.034 147.447 349.034 150.326C349.034 153.336 347.987 155.888 345.894 157.981C343.8 160.075 341.313 161.122 338.435 161.122ZM365.13 161.122C362.12 161.122 359.568 160.075 357.475 157.981C355.381 155.888 354.334 153.336 354.334 150.326C354.334 147.447 355.381 144.961 357.475 142.867C359.568 140.773 362.12 139.727 365.13 139.727C368.14 139.727 370.691 140.773 372.785 142.867C374.879 144.961 375.926 147.447 375.926 150.326C375.926 153.336 374.879 155.888 372.785 157.981C370.691 160.075 368.14 161.122 365.13 161.122ZM150.782 134.23C147.772 134.23 145.221 133.184 143.127 131.09C141.033 128.996 139.986 126.51 139.986 123.631C139.986 120.621 141.033 118.069 143.127 115.976C145.221 113.882 147.772 112.835 150.782 112.835C153.661 112.835 156.147 113.882 158.241 115.976C160.335 118.069 161.382 120.621 161.382 123.631C161.382 126.51 160.335 128.996 158.241 131.09C156.147 133.184 153.661 134.23 150.782 134.23ZM177.478 134.23C174.599 134.23 172.112 133.184 170.019 131.09C167.925 128.996 166.878 126.51 166.878 123.631C166.878 120.621 167.925 118.069 170.019 115.976C172.112 113.882 174.599 112.835 177.478 112.835C180.487 112.835 183.039 113.882 185.133 115.976C187.227 118.069 188.273 120.621 188.273 123.631C188.273 126.51 187.227 128.996 185.133 131.09C183.039 133.184 180.487 134.23 177.478 134.23ZM204.369 134.23C201.359 134.23 198.808 133.184 196.714 131.09C194.62 128.996 193.573 126.51 193.573 123.631C193.573 120.621 194.62 118.069 196.714 115.976C198.808 113.882 201.359 112.835 204.369 112.835C207.248 112.835 209.734 113.882 211.828 115.976C213.922 118.069 214.969 120.621 214.969 123.631C214.969 126.51 213.922 128.996 211.828 131.09C209.734 133.184 207.248 134.23 204.369 134.23ZM311.543 134.23C308.533 134.23 305.981 133.184 303.888 131.09C301.794 128.996 300.747 126.51 300.747 123.631C300.747 120.621 301.794 118.069 303.888 115.976C305.981 113.882 308.533 112.835 311.543 112.835C314.553 112.835 317.104 113.882 319.198 115.976C321.292 118.069 322.339 120.621 322.339 123.631C322.339 126.51 321.292 128.996 319.198 131.09C317.104 133.184 314.553 134.23 311.543 134.23ZM338.435 134.23C335.425 134.23 332.873 133.184 330.779 131.09C328.686 128.996 327.639 126.51 327.639 123.631C327.639 120.621 328.686 118.069 330.779 115.976C332.873 113.882 335.425 112.835 338.435 112.835C341.313 112.835 343.8 113.882 345.894 115.976C347.987 118.069 349.034 120.621 349.034 123.631C349.034 126.51 347.987 128.996 345.894 131.09C343.8 133.184 341.313 134.23 338.435 134.23ZM365.13 134.23C362.12 134.23 359.568 133.184 357.475 131.09C355.381 128.996 354.334 126.51 354.334 123.631C354.334 120.621 355.381 118.069 357.475 115.976C359.568 113.882 362.12 112.835 365.13 112.835C368.14 112.835 370.691 113.882 372.785 115.976C374.879 118.069 375.926 120.621 375.926 123.631C375.926 126.51 374.879 128.996 372.785 131.09C370.691 133.184 368.14 134.23 365.13 134.23ZM177.478 107.535C174.599 107.535 172.112 106.488 170.019 104.395C167.925 102.301 166.878 99.749 166.878 96.7393C166.878 93.8604 167.925 91.374 170.019 89.2803C172.112 87.1865 174.599 86.1396 177.478 86.1396C180.487 86.1396 183.039 87.1865 185.133 89.2803C187.227 91.374 188.273 93.8604 188.273 96.7393C188.273 99.749 187.227 102.301 185.133 104.395C183.039 106.488 180.487 107.535 177.478 107.535ZM204.369 107.535C201.359 107.535 198.808 106.488 196.714 104.395C194.62 102.301 193.573 99.749 193.573 96.7393C193.573 93.8604 194.62 91.374 196.714 89.2803C198.808 87.1865 201.359 86.1396 204.369 86.1396C207.248 86.1396 209.734 87.1865 211.828 89.2803C213.922 91.374 214.969 93.8604 214.969 96.7393C214.969 99.749 213.922 102.301 211.828 104.395C209.734 106.488 207.248 107.535 204.369 107.535ZM231.064 107.535C228.186 107.535 225.699 106.488 223.605 104.395C221.512 102.301 220.465 99.749 220.465 96.7393C220.465 93.8604 221.512 91.374 223.605 89.2803C225.699 87.1865 228.186 86.1396 231.064 86.1396C234.074 86.1396 236.626 87.1865 238.72 89.2803C240.813 91.374 241.86 93.8604 241.86 96.7393C241.86 99.749 240.813 102.301 238.72 104.395C236.626 106.488 234.074 107.535 231.064 107.535ZM257.956 107.535C254.946 107.535 252.395 106.488 250.301 104.395C248.207 102.301 247.16 99.749 247.16 96.7393C247.16 93.8604 248.207 91.374 250.301 89.2803C252.395 87.1865 254.946 86.1396 257.956 86.1396C260.966 86.1396 263.518 87.1865 265.611 89.2803C267.705 91.374 268.752 93.8604 268.752 96.7393C268.752 99.749 267.705 102.301 265.611 104.395C263.518 106.488 260.966 107.535 257.956 107.535ZM284.651 107.535C281.772 107.535 279.286 106.488 277.192 104.395C275.099 102.301 274.052 99.749 274.052 96.7393C274.052 93.8604 275.099 91.374 277.192 89.2803C279.286 87.1865 281.772 86.1396 284.651 86.1396C287.661 86.1396 290.213 87.1865 292.307 89.2803C294.4 91.374 295.447 93.8604 295.447 96.7393C295.447 99.749 294.4 102.301 292.307 104.395C290.213 106.488 287.661 107.535 284.651 107.535ZM311.543 107.535C308.533 107.535 305.981 106.488 303.888 104.395C301.794 102.301 300.747 99.749 300.747 96.7393C300.747 93.8604 301.794 91.374 303.888 89.2803C305.981 87.1865 308.533 86.1396 311.543 86.1396C314.553 86.1396 317.104 87.1865 319.198 89.2803C321.292 91.374 322.339 93.8604 322.339 96.7393C322.339 99.749 321.292 102.301 319.198 104.395C317.104 106.488 314.553 107.535 311.543 107.535ZM338.435 107.535C335.425 107.535 332.873 106.488 330.779 104.395C328.686 102.301 327.639 99.749 327.639 96.7393C327.639 93.8604 328.686 91.374 330.779 89.2803C332.873 87.1865 335.425 86.1396 338.435 86.1396C341.313 86.1396 343.8 87.1865 345.894 89.2803C347.987 91.374 349.034 93.8604 349.034 96.7393C349.034 99.749 347.987 102.301 345.894 104.395C343.8 106.488 341.313 107.535 338.435 107.535ZM204.369 80.6436C201.359 80.6436 198.808 79.5967 196.714 77.5029C194.62 75.4092 193.573 72.9229 193.573 70.0439C193.573 67.0342 194.62 64.4824 196.714 62.3887C198.808 60.2949 201.359 59.248 204.369 59.248C207.248 59.248 209.734 60.2949 211.828 62.3887C213.922 64.4824 214.969 67.0342 214.969 70.0439C214.969 72.9229 213.922 75.4092 211.828 77.5029C209.734 79.5967 207.248 80.6436 204.369 80.6436ZM231.064 80.6436C228.186 80.6436 225.699 79.5967 223.605 77.5029C221.512 75.4092 220.465 72.9229 220.465 70.0439C220.465 67.0342 221.512 64.4824 223.605 62.3887C225.699 60.2949 228.186 59.248 231.064 59.248C234.074 59.248 236.626 60.2949 238.72 62.3887C240.813 64.4824 241.86 67.0342 241.86 70.0439C241.86 72.9229 240.813 75.4092 238.72 77.5029C236.626 79.5967 234.074 80.6436 231.064 80.6436ZM257.956 80.6436C254.946 80.6436 252.395 79.5967 250.301 77.5029C248.207 75.4092 247.16 72.9229 247.16 70.0439C247.16 67.0342 248.207 64.4824 250.301 62.3887C252.395 60.2949 254.946 59.248 257.956 59.248C260.966 59.248 263.518 60.2949 265.611 62.3887C267.705 64.4824 268.752 67.0342 268.752 70.0439C268.752 72.9229 267.705 75.4092 265.611 77.5029C263.518 79.5967 260.966 80.6436 257.956 80.6436ZM284.651 80.6436C281.772 80.6436 279.286 79.5967 277.192 77.5029C275.099 75.4092 274.052 72.9229 274.052 70.0439C274.052 67.0342 275.099 64.4824 277.192 62.3887C279.286 60.2949 281.772 59.248 284.651 59.248C287.661 59.248 290.213 60.2949 292.307 62.3887C294.4 64.4824 295.447 67.0342 295.447 70.0439C295.447 72.9229 294.4 75.4092 292.307 77.5029C290.213 79.5967 287.661 80.6436 284.651 80.6436ZM311.543 80.6436C308.533 80.6436 305.981 79.5967 303.888 77.5029C301.794 75.4092 300.747 72.9229 300.747 70.0439C300.747 67.0342 301.794 64.4824 303.888 62.3887C305.981 60.2949 308.533 59.248 311.543 59.248C314.553 59.248 317.104 60.2949 319.198 62.3887C321.292 64.4824 322.339 67.0342 322.339 70.0439C322.339 72.9229 321.292 75.4092 319.198 77.5029C317.104 79.5967 314.553 80.6436 311.543 80.6436Z" fill="#FFA21F"/>
</g>
</g>
<defs>
<filter id="filter0_df_17_4" x="89.9863" y="9.24805" width="335.939" height="496.7" filterUnits="userSpaceOnUse" color-interpolation-filters="sRGB">
<feFlood flood-opacity="0" result="BackgroundImageFix"/>
<feColorMatrix in="SourceAlpha" type="matrix" values="0 0 0 0 0 0 0 0 0 0 0 0 0 0 0 0 0 0 127 0" result="hardAlpha"/>
<feOffset/>
<feGaussianBlur stdDeviation="25"/>
<feComposite in2="hardAlpha" operator="out"/>
<feColorMatrix type="matrix" values="0 0 0 0 0.873112 0 0 0 0 0.545103 0 0 0 0 0.0858901 0 0 0 1 0"/>
<feBlend mode="normal" in2="BackgroundImageFix" result="effect1_dropShadow_17_4"/>
<feBlend mode="normal" in="SourceGraphic" in2="effect1_dropShadow_17_4" result="shape"/>
<feGaussianBlur stdDeviation="2.5" result="effect2_foregroundBlur_17_4"/>
</filter>
<clipPath id="clip0_17_4">
<rect width="512" height="512" fill="white"/>
</clipPath>
</defs>
</svg>
